<!-- public/icons/clear.svg -->
<svg
  xmlns="http://www.w3.org/2000/svg"
  viewBox="0 0 1031 1024"
  width="24"
  height="24"
  fill="currentColor"
>
  <path d="M758.029561 319.614823l195.74885-194.936614a71.476758 71.476758 0 0 0 0-101.935604 72.288994 72.288994 0 0 0-102.74784-1.624472l-194.936614 194.936614h-8.122359a183.565311 183.565311 0 0 0-229.05052 20.305897 4.873415 4.873415 0 0 0 0 7.310123l310.274109 309.867992a5.279533 5.279533 0 0 0 7.310123 0 183.565311 183.565311 0 0 0 20.305898-229.050521 23.554841 23.554841 0 0 0 0-6.497887zM236.980238 160.01047a61.32381 61.32381 0 1 0 61.32381-61.323809 61.32381 61.32381 0 0 0-61.32381 61.323809z m373.222392 681.465912a77.568527 77.568527 0 1 0 40.611794-67.009461 77.16241 77.16241 0 0 0-40.611794 67.009461z m172.194008-81.223589a40.611794 40.611794 0 1 0 40.611795-40.611795 40.611794 40.611794 0 0 0-40.611795 40.611795zM363.689037 294.43551l309.461874 309.461874a7.310123 7.310123 0 0 1 0 8.934595 912.95314 912.95314 0 0 0-121.835383 354.947083s0 2.03059-3.248944 0l-103.153958-62.948281v-2.842826c9.746831-20.712015 103.966194-218.085336 94.625481-208.744623a1324.350618 1324.350618 0 0 0-124.272091 150.263639l-28.022138 40.611795a823.201074 823.201074 0 0 1-144.577988-121.835384v-2.030589c22.336487-27.209902 139.298455-178.691896 139.298455-178.691896l-200.622265 118.58644h-2.842826a919.451027 919.451027 0 0 1-94.625481-118.180322v-2.03059c19.087543-15.432482 125.490445-105.590666 125.490445-105.590666l-150.26364 51.983097h-2.842825L0.619594 421.144309a2.436708 2.436708 0 0 1 0-3.248944c26.397666-5.279533 246.91971-50.764743 354.540966-125.084327a6.497887 6.497887 0 0 1 8.934595 0z"/>
</svg>
