<?xml version="1.0" encoding="UTF-8"?>
<svg xmlns="http://www.w3.org/2000/svg" style="display: none;">
  <!-- AI图标 -->
  <symbol id="icon-ai" viewBox="0 0 24 24" fill="none" stroke="currentColor" stroke-width="2" stroke-linecap="round" stroke-linejoin="round">
    <path d="M12 8V4H8" />
    <rect width="16" height="12" x="4" y="8" rx="2" />
    <path d="M2 14h2" />
    <path d="M20 14h2" />
    <path d="M15 13v2" />
    <path d="M9 13v2" />
  </symbol>
  
  <!-- 用户图标 -->
  <symbol id="icon-user" viewBox="0 0 24 24" fill="none" stroke="currentColor" stroke-width="2" stroke-linecap="round" stroke-linejoin="round">
    <path d="M19 21v-2a4 4 0 0 0-4-4H9a4 4 0 0 0-4 4v2" />
    <circle cx="12" cy="7" r="4" />
  </symbol>
  
  <!-- 表情图标 -->
  <symbol id="icon-emoji" viewBox="0 0 24 24" fill="none" stroke="currentColor" stroke-width="2" stroke-linecap="round" stroke-linejoin="round">
    <circle cx="12" cy="12" r="10" />
    <path d="M8 14s1.5 2 4 2 4-2 4-2" />
    <line x1="9" y1="9" x2="9.01" y2="9" />
    <line x1="15" y1="9" x2="15.01" y2="9" />
  </symbol>
  
  <!-- 附件图标 -->
  <symbol id="icon-attachment" viewBox="0 0 24 24" fill="none" stroke="currentColor" stroke-width="2" stroke-linecap="round" stroke-linejoin="round">
    <path d="M21.44 11.05l-9.19 9.19a6 6 0 0 1-8.49-8.49l9.19-9.19a4 4 0 0 1 5.66 5.66l-9.2 9.19a2 2 0 0 1-2.83-2.83l8.49-8.48" />
  </symbol>
  
  <!-- 发送图标 -->
  <symbol id="icon-send" viewBox="0 0 24 24" fill="none" stroke="currentColor" stroke-width="2" stroke-linecap="round" stroke-linejoin="round">
    <path d="m22 2-7 20-4-9-9-4Z" />
    <path d="M22 2 11 13" />
  </symbol>
  
  <!-- 链接图标 -->
  <symbol id="icon-link" viewBox="0 0 24 24" fill="none" stroke="currentColor" stroke-width="2" stroke-linecap="round" stroke-linejoin="round">
    <path d="M18 13v6a2 2 0 0 1-2 2H5a2 2 0 0 1-2-2V8a2 2 0 0 1 2-2h6" />
    <polyline points="15 3 21 3 21 9" />
    <line x1="10" y1="14" x2="21" y2="3" />
  </symbol>
  
  <!-- Logo图标 -->
  <symbol id="icon-logo" viewBox="0 0 24 24" fill="none" stroke="currentColor" stroke-width="2" stroke-linecap="round" stroke-linejoin="round">
    <path d="M21 16V8a2 2 0 0 0-1-1.73l-7-4a2 2 0 0 0-2 0l-7 4A2 2 0 0 0 3 8v8a2 2 0 0 0 1 1.73l7 4a2 2 0 0 0 2 0l7-4A2 2 0 0 0 21 16z" />
    <polyline points="3.29 7 12 12 20.71 7" />
    <line x1="12" y1="22" x2="12" y2="12" />
  </symbol>
  
  <!-- 首页图标 -->
  <symbol id="icon-home" viewBox="0 0 24 24" fill="none" stroke="currentColor" stroke-width="2" stroke-linecap="round" stroke-linejoin="round">
    <path d="M3 9l9-7 9 7v11a2 2 0 0 1-2 2H5a2 2 0 0 1-2-2z" />
    <polyline points="9 22 9 12 15 12 15 22" />
  </symbol>
  
  <!-- 客服图标 -->
  <symbol id="icon-service" viewBox="0 0 24 24" fill="none" stroke="currentColor" stroke-width="2" stroke-linecap="round" stroke-linejoin="round">
    <circle cx="12" cy="7" r="4" />
    <path d="M5 21v-2a7 7 0 0 1 14 0v2" />
    <path d="M15 3c2.21 0 4 1.79 4 4" />
    <path d="M9 3c-2.21 0-4 1.79-4 4" />
    <path d="M10.5 14.5H12l1.5 2v-2" />
  </symbol>
  
  <!-- 信息提示图标 -->
  <symbol id="icon-info" viewBox="0 0 24 24" fill="none" stroke="currentColor" stroke-width="2" stroke-linecap="round" stroke-linejoin="round">
    <circle cx="12" cy="12" r="10" />
    <line x1="12" y1="16" x2="12" y2="12" />
    <line x1="12" y1="8" x2="12.01" y2="8" />
  </symbol>
</svg> 